<svg xmlns="http://www.w3.org/2000/svg" viewBox="0 0 139 29" xmlns:xml="http://www.w3.org/XML/1998/namespace" xml:space="preserve" version="1.1"><style id="fonts">@import url("https://fonts.googleapis.com/css?family=Special%20Elite");</style><g id="cloud-safety-shield" transform="matrix(0.0698597 0 0 0.0698597 2.90008 0.384808)"><g id="cloud-safety-shield_1_"><path style="fill: hsla(0, 100%, 43%, 0.63);" d="M 404.148 119.431 c -4.323 0 -8.517 0.386 -12.679 0.944 C 387.811 53.268 332.258 0 264.261 0 c -55.521 0 -97.8 40.397 -115.262 89.932 c -9.322 -2.445 -24.028 -8.646 -34.1 -8.646 C 51.43 81.286 0 132.689 0 196.169 s 51.43 114.903 114.899 114.903 c 9.187 0 21.384 0 35.521 0 c 32.614 66.591 92.732 89.932 95.718 91.048 l 5.272 1.974 c 2.456 0.901 5.036 1.373 7.669 1.373 c 2.608 0 5.181 -0.472 7.788 -1.438 l 5.118 -1.909 c 3.046 -1.137 63.114 -24.564 95.713 -91.048 c 16.23 0 29.005 0 36.45 0 c 52.924 0 95.821 -42.906 95.821 -95.81 C 499.968 162.337 457.072 119.431 404.148 119.431 Z M 365.532 262.545 c -4.044 18.685 -10.545 34.69 -18.247 48.526 c -29.991 53.891 -79.097 73.07 -81.672 74.014 l -5.122 1.931 c -0.456 0.15 -0.934 0.257 -1.411 0.257 c -0.499 0 -0.981 -0.107 -1.442 -0.257 l -5.111 -1.931 c -2.591 -0.944 -51.692 -20.145 -81.679 -74.014 c -7.686 -13.837 -14.175 -29.841 -18.251 -48.526 c -2.06 -9.525 -3.438 -19.415 -4.097 -29.391 c -0.333 -5.299 -0.499 -34.476 -0.499 -37.801 V 184.37 c 0 -1.823 1.191 -3.412 2.949 -3.926 l 10.539 -3.025 c 21.201 -6.072 37.291 -16.412 51.477 -25.573 c 15.907 -10.233 29.67 -19.114 46.113 -19.114 c 16.433 0 30.163 8.882 46.083 19.114 c 14.201 9.161 30.27 19.501 51.477 25.573 l 10.566 3.025 c 1.738 0.514 2.939 2.102 2.939 3.926 v 10.984 c 0 3.325 -0.161 32.502 -0.504 37.801 C 368.974 243.108 367.612 253.02 365.532 262.545 Z" /><path style="fill: hsla(212, 100%, 50%, 1);" transform="matrix(1 0 0 1 -1.85095 -4.90512)" d="M 298.662 163.753 c -14.085 -9.074 -26.26 -16.926 -39.582 -16.926 c -13.354 0 -25.518 7.853 -39.607 16.926 c -13.929 8.967 -29.729 19.158 -50.967 25.229 l -7.23 2.06 v 7.531 c 0 3.775 0.192 30.871 0.471 35.397 c 0.606 9.118 1.866 18.128 3.739 26.796 c 4.054 18.707 10.78 34.389 18.701 47.733 c 27.187 45.823 69.101 62.236 71.396 63.094 l 3.496 1.308 l 3.476 -1.308 c 2.285 -0.858 44.204 -17.27 71.406 -63.094 c 7.906 -13.345 14.632 -29.026 18.697 -47.733 c 1.877 -8.668 3.122 -17.678 3.701 -26.796 c 0.311 -4.527 0.504 -31.6 0.504 -35.397 v -7.531 l -7.241 -2.06 C 328.396 182.911 312.606 172.72 298.662 163.753 Z M 322.249 308.498 c -25.959 39.774 -63.169 53.762 -63.169 53.762 v -53.762 v -49.836 h -83.839 c -1.727 -7.916 -2.949 -16.348 -3.534 -25.358 c -0.269 -4.076 -0.467 -30.399 -0.467 -34.733 c 43.914 -12.572 66.333 -41.748 87.84 -41.748 v 76.481 v 25.358 h 83.807 C 338.586 278.549 331.056 295.004 322.249 308.498 Z" /></g></g><g id="Layer_1" /><text style="font-family: &quot;Special Elite&quot;, fantasy; fill: hsla(0, 0%, 23%, 0.64);" transform="matrix(1.18661 0 0 1.18661 39.3902 20.7021)">DEFOHOST</text></svg>